<svg xmlns="http://www.w3.org/2000/svg" height="620pt" version="1.1" viewBox="0 -10 620 620" width="620pt">
<g id="surface1">
<path d="M 200 80 L 420 80 L 420 100 L 200 100 Z M 200 80 " style=" stroke:none;fill-rule:nonzero;fill:rgb(0%,0%,0%);fill-opacity:1;" />
<path d="M 230 50 L 390 50 L 390 70 L 230 70 Z M 230 50 " style=" stroke:none;fill-rule:nonzero;fill:rgb(0%,0%,0%);fill-opacity:1;" />
<path d="M 200 500 L 420 500 L 420 520 L 200 520 Z M 200 500 " style=" stroke:none;fill-rule:nonzero;fill:rgb(0%,0%,0%);fill-opacity:1;" />
<path d="M 230 530 L 390 530 L 390 550 L 230 550 Z M 230 530 " style=" stroke:none;fill-rule:nonzero;fill:rgb(0%,0%,0%);fill-opacity:1;" />
<path d="M 619.828125 169.160156 C 619.765625 168.480469 619.632812 167.8125 619.429688 167.15625 C 619.265625 166.558594 619.042969 165.976562 618.757812 165.421875 C 618.476562 164.878906 618.140625 164.359375 617.757812 163.882812 C 617.339844 163.34375 616.867188 162.847656 616.347656 162.402344 C 616.117188 162.222656 616 161.957031 615.761719 161.792969 L 520 94.789062 L 520 10 C 520 4.476562 515.523438 0 510 0 L 110 0 C 104.476562 0 100 4.476562 100 10 L 100 94.789062 L 4.265625 161.792969 C 4.027344 161.957031 3.910156 162.222656 3.679688 162.402344 C 3.164062 162.847656 2.695312 163.34375 2.269531 163.882812 C 1.890625 164.359375 1.554688 164.878906 1.269531 165.421875 C 0.992188 165.976562 0.765625 166.558594 0.601562 167.15625 C 0.394531 167.8125 0.265625 168.480469 0.199219 169.160156 C 0.117188 169.4375 0.046875 169.71875 0 170 L 0 430 C 0 435.523438 4.476562 440 10 440 L 100 440 L 100 590 C 100 595.523438 104.476562 600 110 600 L 510 600 C 515.523438 600 520 595.523438 520 590 L 520 440 L 610 440 C 615.523438 440 620 435.523438 620 430 L 620 170 C 619.960938 169.71875 619.902344 169.4375 619.828125 169.160156 Z M 578.28125 160 L 520 160 L 520 119.210938 Z M 500 20 L 500 160 L 470 160 L 470 120 C 470 114.476562 465.523438 110 460 110 L 160 110 C 154.476562 110 150 114.476562 150 120 L 150 160 L 120 160 L 120 20 Z M 170 160 L 170 130 L 450 130 L 450 160 Z M 100 160 L 41.71875 160 L 100 119.210938 Z M 500 580 L 120 580 L 120 440 L 150 440 L 150 480 C 150 485.523438 154.476562 490 160 490 L 460 490 C 465.523438 490 470 485.523438 470 480 L 470 440 L 500 440 Z M 450 440 L 450 470 L 170 470 L 170 440 Z M 600 420 L 20 420 L 20 180 L 600 180 Z M 600 420 " style=" stroke:none;fill-rule:nonzero;fill:rgb(0%,0%,0%);fill-opacity:1;" />
<path d="M 290 210 C 284.476562 210 280 214.476562 280 220 L 280 340 C 280 356.566406 266.566406 370 250 370 C 233.433594 370 220 356.566406 220 340 C 220 334.476562 215.523438 330 210 330 C 204.476562 330 200 334.476562 200 340 C 200 367.613281 222.386719 390 250 390 C 277.613281 390 300 367.613281 300 340 L 300 220 C 300 214.476562 295.523438 210 290 210 Z M 290 210 " style=" stroke:none;fill-rule:nonzero;fill:rgb(0%,0%,0%);fill-opacity:1;" />
<path d="M 350 230 L 410 230 C 415.523438 230 420 225.523438 420 220 C 420 214.476562 415.523438 210 410 210 L 350 210 C 333.433594 210 320 223.433594 320 240 L 320 280 C 320 296.566406 333.433594 310 350 310 L 390 310 C 395.523438 310 400 314.476562 400 320 L 400 360 C 400 365.523438 395.523438 370 390 370 L 330 370 C 324.476562 370 320 374.476562 320 380 C 320 385.523438 324.476562 390 330 390 L 390 390 C 406.566406 390 420 376.566406 420 360 L 420 320 C 420 303.433594 406.566406 290 390 290 L 350 290 C 344.476562 290 340 285.523438 340 280 L 340 240 C 340 234.476562 344.476562 230 350 230 Z M 350 230 " style=" stroke:none;fill-rule:nonzero;fill:rgb(0%,0%,0%);fill-opacity:1;" />
</g>
</svg>